<?xml version="1.0" encoding="UTF-8"?>
<svg id="Camada_1" data-name="Camada 1" xmlns="http://www.w3.org/2000/svg" viewBox="0 0 3915.57 3243.3">
  <defs>
    <style>
      .cls-1 {
        fill: #29497a;
      }

      .cls-2 {
        fill: #65b4ea;
      }
    </style>
  </defs>
  <path class="cls-2" d="M2843.15,1357.83c-4.62,43.96-20.98,86.24-46.4,122.34-40.59,57.64-111.56,91.89-164.59,136.68-160.58,135.6-307.23,283.89-485.6,396.78-.81.52-1.63,1.03-2.45,1.55-285.77,181.01-614.32,274.33-953.03,270.94-166.36-1.67-328.75-33.15-479.18-102.5-221.95-102.33-395.72-292.04-421.1-541.92-7.91-77.84-1.4-156.79,16.4-232.88,17.33-74.06,45.12-145.52,81.7-212.16,35.57-64.8,78.95-125.3,128.96-179.75,6.75-7.35,13.62-14.59,20.61-21.71,9.93-10.12,20.1-20.03,31.05-29.04,4.57-3.77,10.22-7.93,16.38-8.24,13.29-.68,3.64,7.63-.36,14.6-37.78,65.76-61.5,141.07-78.53,214.96-17.59,76.28-23.38,154.26-14.4,232.11,2.65,22.98,6.52,45.81,11.58,68.38,62.54,279.26,301.03,452.73,582,469.93,223.6,13.69,442.92-30.88,645.51-126.69,175.92-83.19,344.66-194.44,468.83-345.88,47.09-57.43,88.27-119.71,122.59-185.57,17.16-32.92,29.05-68.68,46.22-101.35,15.31-29.13,41.34-55.99,67.68-75.69,91.38-68.35,216.22-63.82,303.03-.61,76.73,55.87,112.21,149.17,103.1,235.75Z"/>
  <path class="cls-1" d="M2670.87,332.72c-79.76,32.99-155.48,75.25-214.18,141.85-76.65,86.96-91.6,185.09-3.53,266.39l-241.47,231.37-312.25,308.77c-105.95,104.77-216.79,223.72-344.46,301.72-166.7,101.84-394.66,145.83-583.68,92.43-63.35-17.9-115.31-49.89-162.93-94.06-197.31-183.01-188.19-445.49-70.73-671.53,117.95-226.95,346.21-436.65,605.64-477.36,48.36-7.59,94.12-.2,132.92,28.36,51.31,37.77,63.64,104.93,29.57,159.72-41.04,66-116.96,108.93-185.52,146.29-110.2,60.05-201.57,147.6-260.89,258.9-33.07,62.05-52.9,129.41-50.76,198.42,2.37,76.37,55.43,131.44,129.23,144.35,97.33,17.03,190.95-18.21,265.93-82.14,83.6-71.28,159.41-145.48,235.71-224.75l218.25-226.73c72.32-75.13,144.63-144.68,223.36-212.95,124.08-107.59,261.85-206.94,418.24-259.44,57.44-19.28,113.71-27.63,171.56-29.63Z"/>
  <path class="cls-2" d="M2453.15,740.96c-25.02-2.49-45.21-38.97-55.19-61.54-25.34-57.29-3.62-114.4,10.11-149.24,39.7-100.76,135.14-180.79,232.19-195.78,38.37-5.93,80.49-2.22,86.28-1.69,15.38,1.42,56.63,6.17,104.28,24.53,76.91,29.63,128.12,78.38,155.26,108.72l169.1,171.68,232.45,240.39,174.95,178.49c40.85,41.68,76.33,84.35,106.39,134.07,44.87,74.22,53.34,157.93,23.53,240.26-46.64,128.85-133.96,234.45-218.52,339.87-83.36,103.94-171.28,204.29-264.58,299.43-233.22,237.83-512.35,441.86-816.78,581.86-290.39,133.54-613.97,205.04-931.78,170.94-377.1-40.47-745.57-236.25-926.44-578.16,557.27,471.1,1255.99,364.63,1842.67-.03,246.37-148.77,453.08-345.57,653.08-551.53,63.3-65.19,125.22-131.71,185.71-199.5,51.06-57.22,115.42-126.62,65.67-206.54-6.29-10.12-14.22-19.11-22.12-28.04-45.38-51.35-90.58-102.83-137.01-153.24-61.29-66.53-104.9-111-175.94-183.43-8.87-9.04-71.98-66.31-150.46-146.1-27.8-28.27-56.55-53.33-89.17-74.73-92.95-60.99-176.29-9.57-253.69,39.31Z"/>
</svg>